<svg xmlns="http://www.w3.org/2000/svg" width="638.326" height="1209.222" viewBox="0 0 638.326 1209.222"><defs><style>.a{fill:#e3ae2c;opacity:0.147;mix-blend-mode:lighten;isolation:isolate;}</style></defs><path class="a" d="M607.974,715.992l-61.867,47.458L341.861,1209.222,583.328,841.738ZM638.326,799.1l-102.5,285.014,47.5-242.374,50.19-76.384Zm-92.219-35.649L310.333,944.309l176.651-184.1,76.1-33.831Zm-7.731-279L400.19,238.306,560.67,443.7l19.048,67.393ZM560.67,443.7,435.262,0,636.615,442.348,631.149,533.9Zm-82.429,84.8L133.272,223.4l405.1,261.052,45.452,80.956ZM450.27,644.005,0,574.6l481.363.6L561.049,617.5Zm35.4,36.66L196.224,704.791,450.27,644.005l74.645,11.5Zm-4.3-105.473L229.719,441.6l248.522,86.891,52.875,46.761Zm5.622,185.013L77.76,942.1,485.665,680.665l84.384-7.032Z"/></svg>