<svg xmlns="http://www.w3.org/2000/svg" xmlns:xlink="http://www.w3.org/1999/xlink" width="72.635" height="80.412" viewBox="0 0 72.635 80.412"><defs><style>.a{fill:#e3ae2c;}.b{fill:url(#a);}</style><linearGradient id="a" y1="0.5" x2="1" y2="0.5" gradientUnits="objectBoundingBox"><stop offset="0.406" stop-color="#c18ed4"/><stop offset="1" stop-color="#e3ae2c"/></linearGradient></defs><g transform="translate(-786 -348)"><g transform="translate(786 348)"><g transform="translate(45.165 18.628)"><path class="a" d="M528.507,453.219h0c-9.233-1.766-10.858-3.93-10.858-7.825,0-5.519,5.532-7.478,10.27-7.478,6.389,0,10.135,2.563,11.454,7.835l.049.2h1.548l-.056-.309c-.761-4.188-3.634-9.18-12.995-9.18-7.072,0-11.823,3.61-11.823,8.982,0,5.823,3.875,7.613,12.017,9.222s12.036,3.4,12.036,9.1c0,5.173-4.334,8.262-11.593,8.262-7.044,0-11.545-3.23-12.675-9.1l-.041-.213h-1.559l.055.308c1.221,6.839,6.155,10.455,14.269,10.455,6.355,0,13.146-2.591,13.146-9.864C541.751,458.649,539.584,455.355,528.507,453.219Z" transform="translate(-514.281 -436.46)"/></g><path class="b" d="M337.994,379.876l-4.114-3.156L320.3,347.077l16.057,24.437Zm2.018-5.526L333.2,355.4l3.159,16.118,3.338,5.079Zm-6.133,2.371L318.2,364.693l11.747,12.243,5.061,2.25Zm-.514,18.553-9.189,16.368,10.672-13.658,1.267-4.482Zm1.483,2.71-8.34,29.506,13.39-29.416-.363-6.088Zm-5.481-5.639-22.94,20.289,26.939-17.36,3.022-5.384Zm-1.86-7.681-29.943,4.616,32.01-.04,5.3-2.813Zm2.354-2.438-19.248-1.6,16.894,4.042,4.964-.765Zm-.286,7.014-16.734,8.884,16.527-5.778,3.516-3.11Zm.374-12.3-27.213-12.1,27.125,17.385,5.612.468Z" transform="translate(-297.564 -347.077)"/></g></g></svg>