<svg xmlns="http://www.w3.org/2000/svg" xmlns:xlink="http://www.w3.org/1999/xlink" width="259.813" height="75.666" viewBox="0 0 259.813 75.666"><defs><style>.a{fill:#e3ae2c;}.b{fill:#c18ed4;}.c{fill:url(#a);}</style><linearGradient id="a" y1="0.5" x2="1" y2="0.5" gradientUnits="objectBoundingBox"><stop offset="0.406" stop-color="#c18ed4"/><stop offset="1" stop-color="#e3ae2c"/></linearGradient></defs><g transform="translate(-298 -347)"><g transform="translate(298 347)"><g transform="translate(42.499 12.365)"><path class="a" d="M808.165,456.056h20.559v-1.37H808.165V441.121h21.527v-1.37H806.7V473.3h23.577l.36-1.37H808.165Z" transform="translate(-749.358 -433.942)"/><path class="a" d="M527.668,452.23h0c-8.688-1.662-10.217-3.7-10.217-7.364,0-5.193,5.206-7.036,9.664-7.036,6.012,0,9.537,2.412,10.778,7.373l.046.187h1.457l-.053-.291c-.716-3.941-3.419-8.638-12.228-8.638-6.654,0-11.126,3.4-11.126,8.452,0,5.479,3.646,7.163,11.308,8.678s11.325,3.2,11.325,8.562c0,4.868-4.078,7.774-10.908,7.774-6.628,0-10.864-3.039-11.927-8.558l-.039-.2h-1.467l.052.29c1.149,6.436,5.792,9.838,13.427,9.838,5.98,0,12.37-2.438,12.37-9.282C540.129,457.339,538.09,454.239,527.668,452.23Z" transform="translate(-514.281 -431.296)"/><path class="a" d="M645.923,441.121H659.06V489.7h1.462V441.121H673.66v-1.37H645.923Z" transform="translate(-620.107 -433.942)"/><path class="a" d="M954.374,439.752h-1.462V473.3h21.641l.36-1.37h-20.54Z" transform="translate(-866.895 -433.942)"/><path class="a" d="M1227.574,439.752,1212.93,473.3h1.554l5.67-13.091h15.856l5.6,12.943.064.149h1.6l-14.5-33.545Zm7.854,19.084h-14.646c1.228-2.83,2.407-5.529,3.455-7.93,1.9-4.358,3.362-7.7,3.926-9.1.491,1.321,1.573,3.825,3.453,8.176C1232.643,452.358,1233.911,455.293,1235.428,458.836Z" transform="translate(-1075.922 -433.943)"/><path class="a" d="M1382.987,410.128h-58.321v1.37h16.986v37.984h1.462V411.5h39.873Z" transform="translate(-1165.746 -410.128)"/><path class="a" d="M1088.36,439.752H1086.9V473.3h21.641l.36-1.37h-20.54Z" transform="translate(-974.606 -433.942)"/><path class="a" d="M1501.831,471.927v-15.87h20.559v-1.37h-20.559V441.121h21.527v-1.37H1500.37V473.3h23.578l.36-1.37Z" transform="translate(-1306.994 -433.942)"/></g><g transform="translate(87.788 57.38)"><g transform="translate(0 0)"><path class="b" d="M753.972,647.1a3.906,3.906,0,0,1-4.116,3.072c-3.087,0-4.63-2.308-4.63-5.2,0-2.778,1.543-5.292,4.689-5.292a3.736,3.736,0,0,1,4.057,3.131h-1.514a2.457,2.457,0,0,0-2.6-1.881c-2.175,0-3.043,1.97-3.043,4,0,1.955.823,4,3.1,4a2.524,2.524,0,0,0,2.543-1.823Z" transform="translate(-745.226 -639.675)"/><path class="b" d="M821.861,644.879c0,2.822-1.6,5.307-4.836,5.307-3.043,0-4.719-2.323-4.719-5.248s1.734-5.262,4.836-5.262C820.038,639.675,821.861,641.821,821.861,644.879Zm-7.967.014c0,2.161,1.073,4.013,3.19,4.013,2.293,0,3.19-1.9,3.19-4,0-2.161-1.014-3.954-3.19-3.954C814.864,640.954,813.894,642.747,813.894,644.893Z" transform="translate(-799.151 -639.675)"/><path class="b" d="M895.346,646.392c0-1.867.03-3.807.074-4.9h-.059c-.441,1.735-1.984,5.939-3.116,9.143h-1.338c-.853-2.646-2.44-7.365-2.9-9.158h-.059c.088,1.176.118,3.41.118,5.16v4h-1.411V640.424h2.263c1.088,3.087,2.4,7.027,2.749,8.364h.015c.25-1.043,1.808-5.365,2.954-8.364h2.191v10.216h-1.485Z" transform="translate(-858.924 -640.277)"/><path class="b" d="M975.992,646.392c0-1.867.029-3.807.074-4.9h-.059c-.441,1.735-1.984,5.939-3.116,9.143h-1.338c-.853-2.646-2.44-7.365-2.9-9.158H968.6c.088,1.176.118,3.41.118,5.16v4H967.3V640.424h2.264c1.088,3.087,2.4,7.027,2.749,8.364h.015c.25-1.043,1.808-5.365,2.955-8.364h2.19v10.216h-1.485Z" transform="translate(-923.754 -640.277)"/><path class="b" d="M1048.954,640.424v6.145c0,2.322,1.264,2.954,2.528,2.954,1.484,0,2.513-.691,2.513-2.954v-6.145h1.514v6.056c0,3.352-1.867,4.293-4.057,4.293-2.161,0-4.028-1.014-4.028-4.2v-6.145Z" transform="translate(-988.163 -640.277)"/><path class="b" d="M1116.979,650.641V640.424h1.97c1.426,2.382,4.454,7.276,5.012,8.379h.015c-.1-1.264-.088-2.9-.088-4.572v-3.807h1.411v10.216h-1.852c-1.308-2.176-4.483-7.5-5.1-8.658h-.029c.074,1.117.088,2.911.088,4.763v3.9Z" transform="translate(-1044.077 -640.277)"/><path class="b" d="M1189.77,640.424v10.216h-1.514V640.424Z" transform="translate(-1101.376 -640.277)"/><path class="b" d="M1230.356,647.1a3.907,3.907,0,0,1-4.116,3.072c-3.087,0-4.63-2.308-4.63-5.2,0-2.778,1.543-5.292,4.689-5.292a3.737,3.737,0,0,1,4.057,3.131h-1.514a2.457,2.457,0,0,0-2.6-1.881c-2.176,0-3.043,1.97-3.043,4,0,1.955.823,4,3.1,4a2.525,2.525,0,0,0,2.543-1.823Z" transform="translate(-1128.188 -639.675)"/><path class="b" d="M1288.01,647.715l-1.029,2.925h-1.514l3.6-10.216h1.882l3.763,10.216H1293.1l-1.073-2.925Zm3.646-1.294c-.926-2.572-1.455-4-1.676-4.792h-.015c-.25.882-.838,2.587-1.573,4.792Z" transform="translate(-1179.524 -640.277)"/><path class="b" d="M1346.594,641.718h-3.263v-1.294h8.055v1.294h-3.263v8.923h-1.529Z" transform="translate(-1226.04 -640.277)"/><path class="b" d="M1408.252,640.424v10.216h-1.514V640.424Z" transform="translate(-1277.013 -640.277)"/><path class="b" d="M1449.647,644.879c0,2.822-1.6,5.307-4.836,5.307-3.043,0-4.719-2.323-4.719-5.248s1.734-5.262,4.836-5.262C1447.825,639.675,1449.647,641.821,1449.647,644.879Zm-7.967.014c0,2.161,1.073,4.013,3.19,4.013,2.294,0,3.19-1.9,3.19-4,0-2.161-1.014-3.954-3.19-3.954C1442.65,640.954,1441.68,642.747,1441.68,644.893Z" transform="translate(-1303.826 -639.675)"/><path class="b" d="M1514.443,650.641V640.424h1.97c1.426,2.382,4.454,7.276,5.013,8.379h.015c-.1-1.264-.089-2.9-.089-4.572v-3.807h1.412v10.216h-1.853c-1.308-2.176-4.483-7.5-5.1-8.658h-.029c.073,1.117.088,2.911.088,4.763v3.9Z" transform="translate(-1363.596 -640.277)"/><path class="b" d="M1582.9,647.172a2.268,2.268,0,0,0,2.514,1.808c1.514,0,2.117-.691,2.117-1.617,0-.985-.5-1.529-2.484-2-2.484-.6-3.278-1.455-3.278-2.881,0-1.573,1.146-2.808,3.454-2.808,2.484,0,3.5,1.426,3.646,2.793h-1.544a1.879,1.879,0,0,0-2.146-1.587c-1.176,0-1.852.514-1.852,1.44s.559,1.279,2.308,1.705c2.925.706,3.469,1.837,3.469,3.16,0,1.691-1.249,2.984-3.793,2.984-2.573,0-3.719-1.382-3.939-3Z" transform="translate(-1417.402 -639.675)"/></g></g><path class="c" d="M335.607,377.941l-3.871-2.97-12.781-27.894,15.11,23Zm1.9-5.2-6.414-17.835,2.973,15.166,3.141,4.78Zm-5.771,2.231-14.753-11.317,11.054,11.52,4.762,2.117Zm-.484,17.458-8.647,15.4,10.042-12.852,1.192-4.217Zm1.4,2.55L324.8,422.743l12.6-27.68-.342-5.729Zm-5.158-5.306L305.9,408.764l25.349-16.335,2.844-5.066Zm-1.75-7.228-28.175,4.343,30.121-.037,4.986-2.647Zm2.215-2.294-18.112-1.51,15.9,3.8,4.671-.72Zm-.269,6.6-15.746,8.359,15.551-5.437,3.309-2.926Zm.352-11.577L302.43,363.792l25.524,16.359,5.28.44Z" transform="translate(-297.564 -347.077)"/></g></g></svg>