<?xml version="1.0" standalone="no"?>
<!DOCTYPE svg PUBLIC "-//W3C//DTD SVG 20010904//EN"
 "http://www.w3.org/TR/2001/REC-SVG-20010904/DTD/svg10.dtd">
<svg version="1.0" xmlns="http://www.w3.org/2000/svg"
 width="80.000000pt" height="80.000000pt" viewBox="0 0 80.000000 80.000000"
 preserveAspectRatio="xMidYMid meet">
<metadata>
Created by potrace 1.14, written by Peter Selinger 2001-2017
</metadata>
<g transform="translate(0.000000,80.000000) scale(0.100000,-0.100000)"
fill="#000000" stroke="none">
<path d="M295 743 c21 -44 86 -185 96 -212 7 -18 -4 -13 -57 29 -47 37 -61 44
-49 26 10 -14 21 -26 25 -26 4 0 15 -11 23 -24 15 -22 6 -19 -95 25 -62 27
-114 49 -117 49 -2 0 45 -32 105 -71 60 -39 113 -75 118 -80 6 -5 -20 -6 -60
-4 l-69 5 54 -15 c30 -9 56 -17 58 -19 2 -2 -25 -7 -59 -11 -35 -5 -65 -9 -68
-10 -3 -1 -34 -5 -70 -11 -63 -9 -60 -9 78 -14 l143 -5 -65 -35 c-36 -18 -64
-35 -63 -37 2 -1 27 7 56 18 30 11 55 18 57 16 2 -2 -25 -29 -60 -61 -139
-124 -138 -122 -61 -75 39 23 77 48 85 54 8 6 33 22 55 35 l39 24 -37 -67
c-20 -37 -35 -67 -33 -67 3 0 21 23 41 50 21 28 39 49 41 48 1 -2 -12 -57 -31
-123 -18 -66 -32 -121 -31 -122 7 -7 124 268 121 284 -2 10 -4 22 -4 27 -1 4
-10 -2 -22 -15 -11 -13 -18 -19 -15 -12 4 6 0 13 -6 16 -10 3 -10 7 1 20 16
20 1 23 -32 5 -20 -10 -21 -10 -8 5 11 14 11 17 0 17 -8 1 -3 7 10 14 l24 13
-29 11 c-19 7 -22 11 -11 11 10 1 15 6 12 11 -3 6 1 10 9 10 21 0 20 16 -1 25
-17 7 -16 8 2 15 12 4 26 3 34 -4 12 -9 13 -5 9 23 -4 28 -3 31 7 18 24 -33
23 -3 -4 74 -34 99 -42 108 -26 29 15 -72 16 -73 -64 48 -62 93 -80 114 -56
65z"/>
<path d="M581 606 c-49 -16 -75 -55 -67 -99 7 -39 36 -55 141 -81 92 -23 121
-75 73 -131 -47 -54 -169 -39 -206 25 -19 34 -33 40 -25 10 9 -34 53 -68 99
-78 84 -18 161 20 168 84 7 58 -24 84 -135 115 -89 25 -99 32 -99 74 0 42 28
66 83 72 52 6 102 -16 119 -52 15 -34 29 -31 17 3 -18 52 -101 81 -168 58z"/>
</g>
</svg>
