<svg xmlns="http://www.w3.org/2000/svg" width="45.996" height="46.287" viewBox="0 0 45.996 46.287"><defs><style>.a{fill:#604169;}</style></defs><path class="a" d="M1841.809,47.414h0Z" transform="translate(-1841.809 -44.098)"/><path class="a" d="M1884.405,0h-39.2a3.359,3.359,0,0,0-3.4,3.315V42.973a3.358,3.358,0,0,0,3.4,3.315h39.2a3.358,3.358,0,0,0,3.4-3.315V3.316A3.359,3.359,0,0,0,1884.405,0Zm-28.653,38.747h-6.947v-20.9h6.947Zm-3.472-23.754h-.045a3.969,3.969,0,1,1,.045,0ZM1880.8,38.747h-6.947V27.567c0-2.81-1.006-4.727-3.519-4.727a3.8,3.8,0,0,0-3.565,2.541,4.76,4.76,0,0,0-.229,1.695V38.747H1859.6s.091-18.94,0-20.9h6.947v2.959a6.9,6.9,0,0,1,6.261-3.45c4.571,0,8,2.987,8,9.407Z" transform="translate(-1841.809 0)"/></svg>