<svg xmlns="http://www.w3.org/2000/svg" width="45.996" height="46.287" viewBox="0 0 45.996 46.287"><defs><style>.a{fill:#604169;}</style></defs><path class="a" d="M2613.4,47.414h0Z" transform="translate(-2613.405 -44.098)"/><path class="a" d="M2656,0h-39.2a3.36,3.36,0,0,0-3.4,3.315V42.973a3.358,3.358,0,0,0,3.4,3.315H2656a3.358,3.358,0,0,0,3.4-3.315V3.316A3.359,3.359,0,0,0,2656,0Zm-5.058,15.023c-1.8,1.327-2.112,3.2-2.435,5.291a17.835,17.835,0,0,1-24.571,14.236,6.2,6.2,0,0,1-2.4-1.456c2.916-.425,5.579-.525,7.9-2.4-1.411-.935-3.067-1.32-3.923-2.7-.388-.618-1.511-1.255-.167-2.154.671-.45-.155-.663-.416-.862a6.76,6.76,0,0,1-2.509-3.522c-.332-1.173-.324-2.026,1.606-1.332a11.751,11.751,0,0,1-1.765-4.271,8.878,8.878,0,0,1,.085-1.7c.091-.618.139-1.416.76-1.669.719-.294,1.093.5,1.529.91a18.01,18.01,0,0,0,9.4,4.854c1.324.239,1.8-.07,1.942-1.468a6.283,6.283,0,0,1,9.9-4.829,3.145,3.145,0,0,0,3.051.224c.464-.164,1.023-.652,1.414-.25.526.542-.182,1-.408,1.485-.081.168-.175.332-.266.5.4.754,1.068-.06,1.52.284A.635.635,0,0,1,2650.943,15.023Z" transform="translate(-2613.405 0)"/></svg>