<?xml version="1.0" encoding="UTF-8"?><svg id="Layer_1" xmlns="http://www.w3.org/2000/svg" viewBox="0 0 65 65"><defs><style>.cls-1,.cls-2{fill:#e3ae2c;}.cls-3{fill:#370c43;}.cls-4{fill:#9663a9;}.cls-4,.cls-2,.cls-5{stroke:#370c43;stroke-linecap:round;stroke-linejoin:round;stroke-width:1.98px;}.cls-5{fill:#f7f8f9;}</style></defs><polygon class="cls-4" points="43.56 53.46 21.44 53.46 3.66 53.46 3.66 4.66 21.44 4.66 43.56 4.66 61.34 4.66 61.34 53.46 43.56 53.46"/><path class="cls-5" d="M53.8,49.47H11.2c0-1.96-1.59-3.55-3.55-3.55V12.2c1.96,0,3.55-1.59,3.55-3.55H53.8c0,1.96,1.59,3.55,3.55,3.55V45.92c-1.96,0-3.55,1.59-3.55,3.55Z"/><path class="cls-2" d="M48.73,12.65H16.27c-.27,0-.43,.3-.28,.53l1.3,1.95c.08,.11,.08,.26,0,.38l-1.3,1.95c-.15,.23,.01,.53,.28,.53H48.73c.27,0,.43-.3,.28-.53l-1.3-1.95c-.08-.11-.08-.26,0-.38l1.3-1.95c.15-.23-.01-.53-.28-.53Z"/><g><path class="cls-3" d="M40.49,22.85h-15.97c-.49,0-.89-.4-.89-.89s.4-.89,.89-.89h15.97c.49,0,.89,.4,.89,.89s-.4,.89-.89,.89Z"/><path class="cls-3" d="M50.69,27.29h-14.2c-.49,0-.89-.4-.89-.89s.4-.89,.89-.89h14.2c.49,0,.89,.4,.89,.89s-.4,.89-.89,.89Z"/><path class="cls-3" d="M32.5,27.29H14.31c-.49,0-.89-.4-.89-.89s.4-.89,.89-.89h18.19c.49,0,.89,.4,.89,.89s-.4,.89-.89,.89Z"/><path class="cls-3" d="M50.69,31.73h-9.32c-.49,0-.89-.4-.89-.89s.4-.89,.89-.89h9.32c.49,0,.89,.4,.89,.89s-.4,.89-.89,.89Z"/><path class="cls-3" d="M37.38,31.73h-12.42c-.49,0-.89-.4-.89-.89s.4-.89,.89-.89h12.42c.49,0,.89,.4,.89,.89s-.4,.89-.89,.89Z"/><path class="cls-3" d="M20.96,31.73h-6.66c-.49,0-.89-.4-.89-.89s.4-.89,.89-.89h6.66c.49,0,.89,.4,.89,.89s-.4,.89-.89,.89Z"/><path class="cls-3" d="M30.5,36.16h-3.77c-.49,0-.89-.4-.89-.89s.4-.89,.89-.89h3.77c.49,0,.89,.4,.89,.89s-.4,.89-.89,.89Z"/><path class="cls-3" d="M22.74,36.16H14.31c-.49,0-.89-.4-.89-.89s.4-.89,.89-.89h8.43c.49,0,.89,.4,.89,.89s-.4,.89-.89,.89Z"/><path class="cls-3" d="M28.28,40.6H14.31c-.49,0-.89-.4-.89-.89s.4-.89,.89-.89h13.97c.49,0,.89,.4,.89,.89s-.4,.89-.89,.89Z"/><path class="cls-3" d="M16.46,45.14c-.95,0-1.9-.24-2.69-.83-.39-.3-.47-.85-.17-1.24,.3-.39,.85-.47,1.24-.17,1.07,.81,2.81,.46,3.96-.09,2.18-1.04,4.35-1,5.8,.09,.39,.3,.47,.85,.17,1.24-.3,.39-.85,.47-1.24,.17-.91-.69-2.39-.65-3.96,.09-.9,.43-2.01,.74-3.11,.74Z"/></g><g><path class="cls-2" d="M35.61,44.02v17.87c0,.34,.37,.55,.66,.39l5.55-3.17,5.55,3.17c.3,.17,.66-.04,.66-.39v-17.87h-12.42Z"/><path class="cls-2" d="M47.89,36.06c-1.67-1.33-3.77-2.12-6.07-2.12-5.39,0-9.76,4.37-9.76,9.76,0,4.86,3.55,8.88,8.19,9.63,.51,.08,1.04,.13,1.57,.13,5.39,0,9.76-4.37,9.76-9.76,0-3.1-1.44-5.85-3.69-7.64Z"/><g><path class="cls-1" d="M41.82,50.7c-.37,0-.75-.03-1.13-.09-3.4-.55-5.87-3.45-5.87-6.9,0-3.86,3.14-7,7-7,1.59,0,3.1,.53,4.35,1.52,1.68,1.34,2.65,3.33,2.65,5.48,0,3.86-3.14,7-7,7Z"/><path class="cls-3" d="M41.82,37.7c1.37,0,2.66,.45,3.73,1.3,1.44,1.15,2.27,2.86,2.27,4.7,0,3.31-2.69,6.01-6.01,6.01-.32,0-.65-.03-.97-.08-2.92-.47-5.04-2.97-5.04-5.93,0-3.31,2.69-6.01,6.01-6.01m0-1.98c-4.41,0-7.99,3.58-7.99,7.99,0,3.97,2.9,7.27,6.7,7.88,.42,.07,.85,.1,1.29,.1,4.41,0,7.99-3.58,7.99-7.99,0-2.53-1.18-4.79-3.02-6.25-1.36-1.08-3.09-1.73-4.97-1.73h0Z"/></g><line class="cls-2" x1="41.82" y1="59.11" x2="41.82" y2="53.46"/><path class="cls-5" d="M44.63,44.73l1.07-.81c.14-.11,.14-.32,0-.42l-1.07-.81c-.08-.06-.12-.15-.1-.25l.18-1.33c.02-.17-.12-.32-.3-.3l-1.33,.18c-.09,.01-.19-.03-.25-.1l-.81-1.07c-.11-.14-.32-.14-.42,0l-.81,1.07c-.06,.08-.15,.12-.25,.1l-1.33-.18c-.17-.02-.32,.12-.3,.3l.18,1.33c.01,.09-.03,.19-.1,.25l-1.07,.81c-.14,.11-.14,.32,0,.42l1.07,.81c.08,.06,.12,.15,.1,.25l-.18,1.33c-.02,.17,.12,.32,.3,.3l1.33-.18c.09-.01,.19,.03,.25,.1l.81,1.07c.11,.14,.32,.14,.42,0l.81-1.07c.06-.08,.15-.12,.25-.1l1.33,.18c.17,.02,.32-.12,.3-.3l-.18-1.33c-.01-.09,.03-.19,.1-.25Z"/></g></svg>