<svg id="Layer_1" data-name="Layer 1" xmlns="http://www.w3.org/2000/svg" width="65" height="65" viewBox="0 0 65 65">
  <defs>
    <style>
      .cls-1 {
        fill: #c18ed4;
      }

      .cls-1, .cls-2, .cls-3, .cls-4 {
        stroke: #370c43;
        stroke-linecap: round;
        stroke-linejoin: round;
        stroke-width: 1.98px;
      }

      .cls-2 {
        fill: #9663a9;
      }

      .cls-3 {
        fill: none;
      }

      .cls-4 {
        fill: #e3ae2c;
      }
    </style>
  </defs>
  <g>
    <g>
      <path class="cls-1" d="M33.36,8c-4.85-4.46-14.2-4.87-14.2-4.87v5l-12.49,12-.4,4.28L10,27.57l6.71-3,4.25.13S13.66,41.9,13.66,45.74v2.61H35.73C47,29.72,40.34,14.43,33.36,8Z"/>
      <rect class="cls-1" x="16.7" y="15.37" transform="translate(-5.98 16.31) rotate(-45)"/>
      <rect class="cls-2" x="11.65" y="48.02" width="26.28" height="6.42"/>
      <path class="cls-1" d="M12.44,51.72h24.9A4.29,4.29,0,0,1,41.63,56v5.83a0,0,0,0,1,0,0H8.14a0,0,0,0,1,0,0V56A4.29,4.29,0,0,1,12.44,51.72Z"/>
      <path class="cls-1" d="M19.16,8.18c8.92.13,16.21,5.21,17.85,14.63"/>
      <path class="cls-3" d="M13.66,45.74C13.66,41.9,21,24.67,21,24.67l2.41-3.9"/>
    </g>
    <g>
      <rect class="cls-4" x="34.49" y="15.9" width="14.99" height="4.87"/>
      <path class="cls-4" d="M53.46,23.88V19.15H30.51v4.73L33.78,27V40.36a3.36,3.36,0,0,0-2.51,3.24v5.66H52.7V43.6a3.36,3.36,0,0,0-2.51-3.24V27Z"/>
      <rect class="cls-4" x="28.84" y="48.02" width="26.28" height="6.42"/>
      <path class="cls-4" d="M29.53,51.72h24.9A4.29,4.29,0,0,1,58.73,56v5.83a0,0,0,0,1,0,0H25.24a0,0,0,0,1,0,0V56A4.29,4.29,0,0,1,29.53,51.72Z"/>
      <polygon class="cls-4" points="54.88 3.63 49.62 3.63 49.62 8.31 44.61 8.31 44.61 3.63 39.35 3.63 39.35 8.31 34.34 8.31 34.34 3.63 29.08 3.63 29.08 8.31 29.08 15.9 34.34 15.9 39.35 15.9 44.61 15.9 49.62 15.9 54.88 15.9 54.88 3.63"/>
    </g>
  </g>
</svg>
