<svg id="Layer_1" data-name="Layer 1" xmlns="http://www.w3.org/2000/svg" width="65" height="65" viewBox="0 0 65 65">
  <defs>
    <style>
      .cls-1 {
        fill: #e3ae2c;
      }

      .cls-1, .cls-2, .cls-3, .cls-4, .cls-5 {
        stroke: #370c43;
        stroke-linecap: round;
        stroke-linejoin: round;
        stroke-width: 1.98px;
      }

      .cls-2 {
        fill: #c18ed4;
      }

      .cls-3 {
        fill: #9663a9;
      }

      .cls-4 {
        fill: #f7f8f9;
      }

      .cls-5 {
        fill: #604169;
      }

      .cls-6 {
        fill: #370c43;
      }
    </style>
  </defs>
  <g>
    <polygon class="cls-1" points="38.08 58.93 26.92 58.93 28.9 48.71 36.1 48.71 38.08 58.93"/>
    <rect class="cls-2" x="3.01" y="6.07" width="58.99" height="44.99"/>
    <rect class="cls-1" x="3.01" y="43.76" width="58.99" height="7.3"/>
    <rect class="cls-1" x="8.2" y="10.95" width="24.3" height="17.62"/>
    <g>
      <rect class="cls-3" x="38.08" y="10.95" width="9.44" height="6.45"/>
      <g>
        <line class="cls-2" x1="50.67" y1="12.37" x2="57.43" y2="12.37"/>
        <line class="cls-2" x1="50.67" y1="15.98" x2="54.05" y2="15.98"/>
      </g>
    </g>
    <g>
      <rect class="cls-4" x="38.08" y="22.12" width="9.44" height="6.45"/>
      <g>
        <line class="cls-3" x1="50.67" y1="23.54" x2="57.43" y2="23.54"/>
        <line class="cls-3" x1="50.67" y1="27.14" x2="54.05" y2="27.14"/>
      </g>
    </g>
    <g>
      <rect class="cls-5" x="38.08" y="33.29" width="9.44" height="6.45"/>
      <g>
        <line class="cls-5" x1="50.67" y1="34.71" x2="57.43" y2="34.71"/>
        <line class="cls-5" x1="50.67" y1="38.31" x2="54.05" y2="38.31"/>
      </g>
    </g>
    <g>
      <line class="cls-4" x1="8.2" y1="34.71" x2="25.03" y2="34.71"/>
      <line class="cls-4" x1="28.47" y1="34.71" x2="32.44" y2="34.71"/>
      <line class="cls-4" x1="8.2" y1="38.31" x2="13.23" y2="38.31"/>
      <line class="cls-4" x1="16.67" y1="38.31" x2="30.38" y2="38.31"/>
    </g>
    <circle class="cls-6" cx="32.5" cy="47.41" r="1.3"/>
    <polygon class="cls-4" points="23.61 19.76 18.52 16.82 18.52 22.7 23.61 19.76"/>
    <line class="cls-4" x1="43.12" y1="58.93" x2="21.88" y2="58.93"/>
  </g>
</svg>
