<svg id="Layer_1" data-name="Layer 1" xmlns="http://www.w3.org/2000/svg" width="65" height="65" viewBox="0 0 65 65">
  <defs>
    <style>
      .cls-1 {
        fill: none;
        stroke: #e3ae2c;
        stroke-linecap: round;
        stroke-linejoin: round;
        stroke-width: 1.98px;
      }
    </style>
  </defs>
  <g>
    <g>
      <path class="cls-1" d="M30.41,52.82a4,4,0,0,1,.65-2.19,14.27,14.27,0,0,1-6.83-3.93H19.74a17.82,17.82,0,0,0,10.91,7.46A4,4,0,0,1,30.41,52.82Z"/>
      <path class="cls-1" d="M45.29,22.68a4.06,4.06,0,0,1-1.74,3.1,14.25,14.25,0,0,1-5.64,24.85,4,4,0,0,1,.41,3.53,17.77,17.77,0,0,0,7-31.48Z"/>
    </g>
    <circle class="cls-1" cx="34.49" cy="52.82" r="4.08"/>
    <path class="cls-1" d="M44.32,56.3H36.6a4.11,4.11,0,0,1-2.11.6,4.06,4.06,0,0,1-2.11-.6H24.65l-3,4.69H47.34Z"/>
    <rect class="cls-1" x="12.72" y="42.31" width="17.51" height="4.4"/>
    <line class="cls-1" x1="16.63" y1="38.71" x2="26.31" y2="38.71"/>
    <rect class="cls-1" x="21.85" y="25.17" width="9.75" height="6.48" transform="translate(-12.26 27.22) rotate(-45)"/>
    <rect class="cls-1" x="43.29" y="5.68" width="6.96" height="5.36" transform="translate(7.79 35.52) rotate(-45)"/>
    <line class="cls-1" x1="24.64" y1="19.42" x2="35.72" y2="30.5"/>
    <path class="cls-1" d="M37.16,22.42a4.08,4.08,0,0,1,4.08-4.07,4,4,0,0,1,2.51.89l4.49-4.49L40.38,6.89,26.25,21l7.86,7.85,3.94-3.94A4,4,0,0,1,37.16,22.42Z"/>
    <rect class="cls-1" x="41.24" y="22.42" transform="translate(-3.78 35.73) rotate(-45)"/>
    <rect class="cls-1" x="34.49" y="52.82" transform="translate(-27.25 39.86) rotate(-45)"/>
    <circle class="cls-1" cx="41.24" cy="22.42" r="4.08"/>
  </g>
</svg>
