<?xml version="1.0" encoding="UTF-8"?><svg id="Layer_1" xmlns="http://www.w3.org/2000/svg" viewBox="0 0 65 65"><defs><style>.cls-1{fill:#604169;}.cls-1,.cls-2,.cls-3,.cls-4,.cls-5{stroke:#370c43;stroke-linecap:round;stroke-linejoin:round;stroke-width:1.98px;}.cls-2{fill:#c18ed4;}.cls-3{fill:#9663a9;}.cls-4{fill:#e3ae2c;}.cls-5{fill:#f7f8f9;}</style></defs><g><rect class="cls-1" x="35.71" y="13.77" width="25.39" height="37.46"/><rect class="cls-3" x="25.45" y="8.3" width="32.81" height="48.4"/><rect class="cls-5" x="16.1" y="5.65" width="39.11" height="53.7"/><g><g><g><rect class="cls-4" x="41.94" y="11.69" width="8.14" height="6.45"/><line class="cls-2" x1="41.94" y1="22.12" x2="47.77" y2="22.12"/></g><g><rect class="cls-5" x="41.94" y="27.29" width="8.14" height="6.45"/><line class="cls-3" x1="41.94" y1="37.71" x2="47.77" y2="37.71"/></g><g><rect class="cls-3" x="41.94" y="42.88" width="8.14" height="6.45"/><line class="cls-1" x1="41.94" y1="53.31" x2="47.77" y2="53.31"/></g></g><line class="cls-5" x1="21.23" y1="49.55" x2="29.58" y2="49.55"/><line class="cls-5" x1="33.02" y1="49.55" x2="37" y2="49.55"/><line class="cls-5" x1="21.23" y1="45.8" x2="26.26" y2="45.8"/><line class="cls-5" x1="29.58" y1="45.8" x2="37" y2="45.8"/><line class="cls-5" x1="21.23" y1="53.31" x2="37" y2="53.31"/><line class="cls-5" x1="21.23" y1="38.3" x2="29.58" y2="38.3"/><line class="cls-5" x1="33.02" y1="38.3" x2="37" y2="38.3"/><line class="cls-5" x1="25.2" y1="42.05" x2="37" y2="42.05"/><line class="cls-5" x1="21.23" y1="42.05" x2="21.95" y2="42.05"/><line class="cls-5" x1="37" y1="26.7" x2="28.64" y2="26.7"/><line class="cls-5" x1="25.2" y1="26.7" x2="21.23" y2="26.7"/><line class="cls-5" x1="37" y1="22.95" x2="31.97" y2="22.95"/><line class="cls-5" x1="28.64" y1="22.95" x2="21.23" y2="22.95"/><line class="cls-5" x1="30.82" y1="30.46" x2="21.23" y2="30.46"/><line class="cls-5" x1="21.23" y1="15.45" x2="29.58" y2="15.45"/><line class="cls-5" x1="33.02" y1="15.45" x2="37" y2="15.45"/><line class="cls-5" x1="21.23" y1="11.69" x2="26.26" y2="11.69"/><line class="cls-5" x1="29.58" y1="11.69" x2="37" y2="11.69"/><line class="cls-5" x1="21.23" y1="19.2" x2="37" y2="19.2"/></g></g><g><rect class="cls-4" x="3.9" y="15.25" width="7.09" height="38.64" transform="translate(14.89 69.14) rotate(180)"/><path class="cls-1" d="M5.92,53.89h3.05c1.11,0,2.02,.9,2.02,2.02v3.3H3.9v-3.3c0-1.11,.9-2.02,2.02-2.02Z" transform="translate(14.89 113.11) rotate(180)"/><polygon class="cls-2" points="7.44 7.93 10.99 15.25 3.9 15.25 7.44 7.93"/></g></svg>