<?xml version="1.0" encoding="UTF-8"?><svg id="Layer_1" xmlns="http://www.w3.org/2000/svg" viewBox="0 0 65 65"><defs><style>.cls-1{fill:#4f69fd;}.cls-2{fill:#7596fd;}.cls-3{fill:#c18ed4;}.cls-3,.cls-4,.cls-5{stroke:#370c43;stroke-linecap:round;stroke-linejoin:round;stroke-width:1.98px;}.cls-4{fill:#e3ae2c;}.cls-5{fill:#f7f8f9;}</style></defs><circle class="cls-4" cx="32.5" cy="32.5" r="29.3" transform="translate(-7.25 9.43) rotate(-14.87)"/><circle class="cls-2" cx="32.5" cy="32.5" r="23.44" transform="translate(-4.47 59.81) rotate(-81.45)"/><path class="cls-1" d="M32.95,58.19c-13.92,0-25.24-11.32-25.24-25.24S19.03,7.71,32.95,7.71s25.24,11.32,25.24,25.24-11.32,25.24-25.24,25.24Zm0-48.68c-12.92,0-23.44,10.51-23.44,23.44s10.51,23.44,23.44,23.44,23.44-10.51,23.44-23.44-10.51-23.44-23.44-23.44Z"/><path class="cls-1" d="M32.95,20.33c-6.96,0-12.62,5.66-12.62,12.62s5.66,12.62,12.62,12.62,12.62-5.66,12.62-12.62-5.66-12.62-12.62-12.62Z"/><path class="cls-5" d="M32.5,57.74c-13.92,0-25.24-11.32-25.24-25.24S18.58,7.26,32.5,7.26s25.24,11.32,25.24,25.24-11.32,25.24-25.24,25.24Z"/><path class="cls-3" d="M32.5,46.92c-7.95,0-14.42-6.47-14.42-14.42s6.47-14.42,14.42-14.42,14.42,6.47,14.42,14.42-6.47,14.42-14.42,14.42Z"/><path class="cls-4" d="M32.5,32.5l-4.78-4.78c-1.22,1.22-1.98,2.91-1.98,4.78,0,.48,.05,.95,.15,1.41l-8.19,13.09c-.13,.2,.11,.44,.31,.31l13.09-8.19c.45,.1,.92,.15,1.41,.15,1.87,0,3.56-.76,4.78-1.98l-4.78-4.78Z"/><path class="cls-4" d="M47,17.69l-13.09,8.19c-.45-.1-.92-.15-1.41-.15-1.87,0-3.56,.76-4.78,1.98l4.78,4.78,4.78,4.78c1.22-1.22,1.98-2.91,1.98-4.78,0-.48-.05-.95-.15-1.41l8.19-13.09c.13-.2-.11-.44-.31-.31Z"/><g><path class="cls-5" d="M53.23,32.5c0,1-.81,1.8-1.8,1.8s-1.8-.81-1.8-1.8,.81-1.8,1.8-1.8,1.8,.81,1.8,1.8Z"/><path class="cls-5" d="M15.37,32.5c0,1-.81,1.8-1.8,1.8s-1.8-.81-1.8-1.8,.81-1.8,1.8-1.8,1.8,.81,1.8,1.8Z"/><path class="cls-5" d="M34.3,51.43c0,1-.81,1.8-1.8,1.8s-1.8-.81-1.8-1.8,.81-1.8,1.8-1.8,1.8,.81,1.8,1.8Z"/><circle class="cls-5" cx="32.5" cy="13.57" r="1.8"/></g><path class="cls-5" d="M35.48,32.5c0,1.65-1.33,2.98-2.98,2.98s-2.98-1.33-2.98-2.98,1.33-2.98,2.98-2.98,2.98,1.33,2.98,2.98Z"/></svg>